# xmcd
#
# Track frame offsets: 
#        150
#        16479
#        30510
#        46925
#        67353
#        80888
#        98697
#        115795
#        132907
#        147599
#        163906
#        179656
#
# Disc length: 2608 seconds
#
# Revision: 0
# Processed by: cddbd v1.5.2PL0 Copyright (c) Steve Scherf et al.
# Submitted via: ExactAudioCopyFreeDBPlugin 1.0
#
DISCID=b00a2e0c
DTITLE=Ilse DeLange - Incredible
DYEAR=2009
DGENRE=Nederpop
TTITLE0=Broken Girl
TTITLE1=Something Amazing
TTITLE2=Stay With Me
TTITLE3=Miracle
TTITLE4=So Incredible
TTITLE5=We're Alright
TTITLE6=Adrift
TTITLE7=Puzzle Me
TTITLE8=Love Won't Hide
TTITLE9=Nothing Left To Break
TTITLE10=The Other Side
TTITLE11=Fall
EXTD=
EXTT0=
EXTT1=
EXTT2=
EXTT3=
EXTT4=
EXTT5=
EXTT6=
EXTT7=
EXTT8=
EXTT9=
EXTT10=
EXTT11=
PLAYORDER=
